HIERARCHY
ROOT COM
{
	OFFSET 0.000000 0.000000 0.000000 
	CHANNELS 6 Xposition Yposition Zposition Zrotation Xrotation Yrotation
	JOINT Spine
	{
		OFFSET 0.000000 0.078370 -0.028498 
		CHANNELS 3 Zrotation Xrotation Yrotation
		JOINT Spine1
		{
			OFFSET 0.000000 0.111469 -0.000097 
			CHANNELS 3 Zrotation Xrotation Yrotation
			JOINT Spine2
			{
				OFFSET 0.000000 0.121511 -0.000092 
				CHANNELS 3 Zrotation Xrotation Yrotation
				JOINT Neck
				{
					OFFSET 0.000000 0.119873 -0.000040 
					CHANNELS 3 Zrotation Xrotation Yrotation
					JOINT Head
					{
						OFFSET 0.000000 0.051518 0.000000 
						CHANNELS 3 Zrotation Xrotation Yrotation
						End Site
						{
							OFFSET 0.000000 0.000000 0.000000 
						}
					}
					JOINT Leftcollar
					{
						OFFSET 0.033237 -0.012095 0.015552 
						CHANNELS 3 Zrotation Xrotation Yrotation
						JOINT LeftArm
						{
							OFFSET 0.131452 0.000000 0.000000 
							CHANNELS 3 Zrotation Xrotation Yrotation
							JOINT LeftForeArm
							{
								OFFSET 0.000000 -0.219203 0.000000 
								CHANNELS 3 Zrotation Xrotation Yrotation
								JOINT LeftHand
								{
									OFFSET 0.000000 -0.193166 0.000000 
									CHANNELS 3 Zrotation Xrotation Yrotation
									End Site
									{
										OFFSET -0.023329 -0.077705 -0.004495 
									}
								}
							}
						}
					}
					JOINT RightCollar
					{
						OFFSET -0.033237 -0.012094 0.015552 
						CHANNELS 3 Zrotation Xrotation Yrotation
						JOINT RightArm
						{
							OFFSET -0.131452 0.000000 0.000000 
							CHANNELS 3 Zrotation Xrotation Yrotation
							JOINT RightForeArm
							{
								OFFSET 0.000000 -0.219203 0.000000 
								CHANNELS 3 Zrotation Xrotation Yrotation
								JOINT RightHand
								{
									OFFSET 0.000000 -0.193166 0.000000 
									CHANNELS 3 Zrotation Xrotation Yrotation
									End Site
									{
										OFFSET 0.023329 -0.077705 -0.004495 
									}
								}
							}
						}
					}
				}
			}
		}
	}
	JOINT LeftUpLeg
	{
		OFFSET 0.077678 0.000000 0.000000 
		CHANNELS 3 Zrotation Xrotation Yrotation
		JOINT LeftLeg
		{
			OFFSET 0.000000 -0.359164 0.000000 
			CHANNELS 3 Zrotation Xrotation Yrotation
			JOINT LeftFoot
			{
				OFFSET 0.000000 -0.337214 0.000000 
				CHANNELS 3 Zrotation Xrotation Yrotation
				JOINT LeftToe
				{
					OFFSET 0.000000 0.000000 0.122098 
					CHANNELS 3 Zrotation Xrotation Yrotation
					End Site
					{
						OFFSET 0.000000 0.000000 0.000000 
					}
				}
			}
		}
	}
	JOINT RightUpLeg
	{
		OFFSET -0.077678 0.000000 0.000000 
		CHANNELS 3 Zrotation Xrotation Yrotation
		JOINT RightLeg
		{
			OFFSET 0.000000 -0.359164 0.000000 
			CHANNELS 3 Zrotation Xrotation Yrotation
			JOINT RightFoot
			{
				OFFSET 0.000000 -0.337214 0.000000 
				CHANNELS 3 Zrotation Xrotation Yrotation
				JOINT RightToe
				{
					OFFSET 0.000000 0.000000 0.122098 
					CHANNELS 3 Zrotation Xrotation Yrotation
					End Site
					{
						OFFSET 0.000000 0.000000 0.000000 
					}
				}
			}
		}
	}
}
MOTION
Frames: 14
Frame Time: 0.033333
0.225728 0.697244 -0.119807 353.806702 3.985440 4.907590 8.392010 353.999176 0.000000 360.000000 360.000000 346.178314 360.000000 360.000000 360.000000 360.000000 360.000000 360.000000 360.000000 360.000000 360.000000 360.000000 360.000000 360.000000 26.424200 344.334503 353.309509 360.000000 315.946014 360.000000 360.000000 0.000000 90.000000 360.000000 360.000000 360.000000 341.305389 26.246901 27.812300 0.000000 348.242706 360.000000 0.000000 360.000000 270.000000 11.454400 16.647699 31.477600 0.000000 24.120501 360.000000 360.000000 9.787110 341.117401 0.000000 360.000000 0.000000 12.471700 341.703705 314.346405 0.000000 0.343076 360.000000 360.000000 26.823400 25.688000 0.000000 360.000000 0.000000 
0.220116 0.701505 -0.085454 352.305420 3.000810 3.343550 10.225400 354.072906 0.000000 360.000000 0.000000 348.829987 360.000000 360.000000 360.000000 360.000000 360.000000 360.000000 360.000000 360.000000 360.000000 360.000000 360.000000 360.000000 23.796499 347.166595 350.232910 0.000000 318.506500 0.000000 0.000000 0.000000 90.000000 360.000000 360.000000 360.000000 341.530304 24.230101 29.949600 0.000000 347.119598 360.000000 360.000000 360.000000 270.000000 15.537900 15.638700 29.773500 360.000000 32.763000 0.000000 360.000000 17.013500 343.257599 0.000000 0.000000 0.000000 14.425900 344.961487 316.091095 0.000000 2.410870 360.000000 360.000000 24.162100 25.515600 0.000000 0.000000 360.000000 
0.216120 0.706220 -0.056526 352.087006 2.180390 3.360640 10.460000 354.598511 0.000000 0.000000 0.000000 349.610107 0.000000 0.000000 0.000000 0.000000 0.000000 0.000000 0.000000 0.000000 0.000000 0.000000 0.000000 0.000000 21.934200 349.781097 347.105194 360.000000 321.680908 360.000000 0.000000 0.000000 90.000000 0.000000 0.000000 0.000000 341.385986 20.710600 31.660801 360.000000 344.603302 0.000000 360.000000 360.000000 270.000000 17.983601 11.381400 24.346600 360.000000 43.002899 0.000000 360.000000 24.673800 348.774292 0.000000 0.000000 0.000000 14.580200 347.858795 313.294708 360.000000 3.677600 360.000000 0.000000 22.207001 28.449200 360.000000 0.000000 360.000000 
0.211266 0.709936 -0.030995 352.618225 1.861030 3.047150 9.734290 355.010925 0.000000 0.000000 360.000000 350.699799 360.000000 0.000000 360.000000 360.000000 0.000000 360.000000 360.000000 0.000000 360.000000 360.000000 0.000000 360.000000 20.773500 352.489594 343.979401 0.000000 324.797089 0.000000 360.000000 0.000000 90.000000 360.000000 0.000000 360.000000 341.154907 15.937800 33.437801 0.000000 342.278198 360.000000 360.000000 0.000000 270.000000 18.966101 5.912860 20.738300 360.000000 52.355900 0.000000 0.000000 29.136400 354.260620 0.000000 0.000000 360.000000 14.598700 350.442200 311.920013 360.000000 3.597250 360.000000 0.000000 20.859800 30.311300 0.000000 0.000000 360.000000 
0.206682 0.713158 -0.006366 353.512878 1.039610 2.131890 8.670260 356.025024 0.000000 0.000000 360.000000 352.070801 0.000000 0.000000 0.000000 0.000000 0.000000 0.000000 0.000000 0.000000 0.000000 0.000000 0.000000 0.000000 19.706200 355.478027 341.389709 0.000000 328.283813 0.000000 360.000000 0.000000 90.000000 0.000000 0.000000 0.000000 340.150391 10.926900 34.716000 0.000000 338.667114 360.000000 360.000000 360.000000 270.000000 18.980801 1.354950 18.143101 0.000000 59.214199 360.000000 0.000000 24.138399 357.430664 0.000000 360.000000 360.000000 14.334600 353.443329 312.693787 360.000000 3.579410 0.000000 0.000001 19.274500 30.304001 360.000000 360.000000 0.000000 
0.201927 0.715967 0.018097 354.896454 0.443711 0.089557 7.109800 356.721436 0.000000 360.000000 360.000000 354.004303 0.000000 0.000000 0.000000 0.000000 0.000000 0.000000 0.000000 0.000000 0.000000 0.000000 0.000000 0.000000 18.774300 359.015045 339.732391 360.000000 332.081787 0.000000 0.000000 0.000000 90.000000 0.000000 0.000000 0.000000 339.040497 5.493270 34.113400 360.000000 334.820313 360.000000 360.000000 0.000000 270.000000 18.055401 357.310394 16.846701 0.000000 62.788399 360.000000 0.000000 20.108601 359.325623 0.000000 0.000000 0.000000 13.489000 356.229034 314.115814 0.000000 3.941640 360.000000 0.000000 17.517799 30.712299 360.000000 360.000000 0.000000 
0.196530 0.717766 0.040063 355.889587 0.593997 357.712585 5.932830 356.795135 0.000000 0.000000 360.000000 355.744446 360.000000 360.000000 0.000000 360.000000 0.000000 0.000000 360.000000 0.000000 0.000000 360.000000 0.000000 0.000000 17.961201 3.027010 339.648712 360.000000 335.249695 0.000000 0.000000 0.000000 90.000000 360.000000 0.000000 0.000000 337.635498 359.877258 33.051300 0.000000 330.316315 0.000000 0.000000 0.000000 270.000000 17.665199 352.771393 16.653200 360.000000 63.923000 0.000000 360.000000 17.173800 0.776668 360.000000 360.000000 360.000000 12.833700 357.965759 315.483704 360.000000 4.567350 0.000000 0.000000 16.123600 31.773899 0.000000 0.000000 360.000000 
0.191825 0.719013 0.062149 357.132568 0.897975 354.893036 4.717740 356.619720 360.000000 360.000000 0.000000 357.551727 0.000000 360.000000 0.000000 0.000000 360.000000 360.000000 0.000000 360.000000 360.000000 0.000000 360.000000 360.000000 17.001600 7.016200 340.308105 360.000000 338.719788 0.000000 0.000000 360.000000 90.000000 0.000000 360.000000 360.000000 336.144897 354.838226 30.556200 0.000000 324.932007 0.000000 360.000000 360.000000 270.000000 16.840700 348.684906 16.885000 0.000000 62.295200 360.000000 360.000000 14.958400 1.822930 0.000000 0.000000 0.000000 11.692000 359.421326 316.923889 0.000000 5.450710 0.000000 0.000000 14.592400 33.077599 0.000000 360.000000 360.000000 
0.187398 0.719313 0.082236 358.145966 1.656140 352.449341 3.765290 356.097961 360.000000 0.000000 360.000000 358.966064 0.000000 360.000000 360.000000 0.000000 360.000000 360.000000 0.000000 360.000000 360.000000 0.000000 360.000000 360.000000 16.288099 10.619100 340.477509 360.000000 341.778412 0.000000 0.000000 0.000000 90.000000 0.000000 360.000000 360.000000 334.756195 349.916687 27.862499 0.000000 320.080292 0.000000 0.000000 360.000000 270.000000 16.102600 344.107208 16.495701 360.000000 58.825500 360.000000 360.000000 12.838500 2.655240 0.000000 360.000000 0.000000 10.627400 0.094967 318.330505 0.000000 6.495450 360.000000 360.000000 13.238700 34.199200 360.000000 0.000000 360.000000 
0.183409 0.719000 0.101984 358.855286 2.222610 349.954498 3.214970 355.816833 360.000000 0.000000 360.000000 0.124635 0.000000 0.000000 0.000000 360.000000 0.000000 360.000000 360.000000 0.000000 360.000000 360.000000 0.000000 360.000000 15.541600 13.710600 340.518494 360.000000 344.901886 0.000000 360.000000 0.000000 90.000000 360.000000 0.000000 360.000000 333.199310 345.321594 25.498600 360.000000 315.472809 360.000000 0.000000 360.000000 270.000000 15.708900 340.289307 16.396099 0.000000 53.734402 360.000000 0.000000 10.562200 3.124250 0.000000 0.000000 0.000000 9.887970 0.912673 320.628906 360.000000 7.349170 0.000000 360.000000 11.769800 34.146198 0.000000 0.000000 0.000000 
0.179517 0.718484 0.122011 359.526947 2.687800 347.582611 2.695630 355.631958 0.000000 360.000000 0.000000 1.126700 0.000000 0.000000 0.000000 0.000000 0.000000 0.000000 0.000000 0.000000 0.000000 0.000000 0.000000 0.000000 14.713200 16.292400 340.916595 0.000000 347.804504 0.000000 0.000000 0.000000 90.000000 0.000000 0.000000 0.000000 331.542999 341.353912 23.490000 0.000000 311.444305 0.000000 360.000000 360.000000 270.000000 15.177600 337.276886 16.361601 0.000000 47.051102 360.000000 360.000000 8.776520 3.512560 360.000000 360.000000 360.000000 9.122050 1.824200 323.596893 360.000000 8.154170 360.000000 0.000000 10.293000 33.440701 360.000000 360.000000 0.000000 
0.175996 0.717545 0.142061 0.279445 3.249740 345.514404 2.127950 355.284241 0.000000 0.000000 0.000000 1.851050 0.000000 0.000000 0.000000 0.000000 0.000000 0.000000 0.000000 0.000000 0.000000 0.000000 0.000000 0.000000 14.034800 18.523600 341.611511 360.000000 349.701904 0.000000 0.000000 0.000000 90.000000 0.000000 0.000000 0.000000 329.992615 338.117188 21.582600 0.000000 308.074097 360.000000 360.000000 0.000000 270.000000 14.368100 334.743896 16.740400 360.000000 39.123798 360.000000 360.000000 8.619870 3.426160 360.000000 0.000000 360.000000 8.245700 2.687790 325.309906 0.000000 8.613100 360.000000 360.000000 9.108980 33.850601 0.000000 360.000000 360.000000 
0.172447 0.716356 0.162956 0.852506 3.557010 343.188110 1.812830 355.209564 360.000000 360.000000 0.000000 2.732940 0.000000 0.000000 0.000000 0.000000 0.000000 0.000000 0.000000 0.000000 0.000000 0.000000 0.000000 0.000000 13.353100 20.031200 342.441101 360.000000 351.330597 0.000000 360.000000 360.000000 90.000000 0.000000 0.000000 0.000000 328.443512 335.657806 19.797100 360.000000 305.131012 360.000000 360.000000 360.000000 270.000000 13.517700 333.380493 18.480900 0.000000 30.242201 360.000000 0.000000 9.217560 1.812440 360.000000 360.000000 0.000000 7.260600 3.874560 326.306488 360.000000 9.114060 0.000000 0.000000 8.290610 35.251999 360.000000 0.000000 360.000000 
0.168466 0.714198 0.184663 1.100380 4.347960 341.240204 1.930480 354.572388 0.000000 0.000000 0.000000 3.239770 0.000000 0.000000 0.000000 0.000000 0.000000 0.000000 0.000000 0.000000 0.000000 0.000000 0.000000 0.000000 13.150600 21.520399 342.536499 0.000000 351.413788 0.000000 360.000000 0.000000 90.000000 0.000000 0.000000 0.000000 327.205109 334.162689 18.642700 0.000000 302.959808 0.000000 360.000000 0.000000 270.000000 12.576300 332.422089 22.141899 0.000000 20.309500 0.000000 360.000000 10.752700 356.980957 0.000000 0.000000 0.000000 6.740960 4.808820 326.866394 0.000000 9.374570 0.000000 360.000000 7.362210 36.614498 0.000000 0.000000 360.000000 
